<svg xmlns="http://www.w3.org/2000/svg" viewBox="0 0 557 462" width="557" height="462" role="img" aria-label="Plateau Can't Stop">
<defs>
  <linearGradient id="sky" x1="0" y1="0" x2="0" y2="1">
    <stop offset="0" stop-color="#bfe3ff"/>
    <stop offset="0.55" stop-color="#e8f4ff"/>
    <stop offset="1" stop-color="#fef3e2"/>
  </linearGradient>
  <linearGradient id="far" x1="0" y1="0" x2="0" y2="1">
    <stop offset="0" stop-color="#9db4d6"/><stop offset="1" stop-color="#b9c8e0"/>
  </linearGradient>
  <linearGradient id="mid" x1="0" y1="0" x2="0" y2="1">
    <stop offset="0" stop-color="#6f7f9e"/><stop offset="1" stop-color="#8a99b5"/>
  </linearGradient>
  <linearGradient id="main" x1="0" y1="0" x2="0" y2="1">
    <stop offset="0" stop-color="#5b6b54"/><stop offset="0.5" stop-color="#4a5a44"/><stop offset="1" stop-color="#3a4636"/>
  </linearGradient>
  <linearGradient id="rockL" x1="0" y1="0" x2="1" y2="1">
    <stop offset="0" stop-color="#7b8a68"/><stop offset="1" stop-color="#566249"/>
  </linearGradient>
  <radialGradient id="sun" cx="0.5" cy="0.5" r="0.5">
    <stop offset="0" stop-color="#fff7d6"/><stop offset="0.6" stop-color="#ffe9a8" stop-opacity="0.9"/><stop offset="1" stop-color="#ffe9a8" stop-opacity="0"/>
  </radialGradient>
  <filter id="soft" x="-20%" y="-20%" width="140%" height="140%">
    <feDropShadow dx="0" dy="1.5" stdDeviation="1.5" flood-color="#000" flood-opacity="0.35"/>
  </filter>
</defs>
<rect width="557" height="462" fill="url(#sky)"/>
<circle cx="445.6" cy="92.4" r="46" fill="url(#sun)"/>
<circle cx="445.6" cy="92.4" r="20" fill="#fff6cf"/>
<g fill="#ffffff" opacity="0.85"><ellipse cx="111.4" cy="73.9" rx="22" ry="11"/><ellipse cx="129.4" cy="76.9" rx="16" ry="9"/><ellipse cx="93.4" cy="76.9" rx="15" ry="8"/></g>
<g fill="#ffffff" opacity="0.85"><ellipse cx="250.7" cy="41.6" rx="16.5" ry="8.25"/><ellipse cx="264.2" cy="43.85" rx="12" ry="6.75"/><ellipse cx="237.2" cy="43.85" rx="11.25" ry="6"/></g>
<path d="M0,268 L66.8,184.8 L133.7,249.5 L211.7,157.1 L289.6,240.2 L367.6,166.3 L456.7,244.9 L557,194 L557,462 L0,462 Z" fill="url(#far)"/>
<path d="M0,304.9 L100.3,221.8 L189.4,286.4 L278.5,184.8 L378.8,277.2 L467.9,212.5 L557,277.2 L557,462 L0,462 Z" fill="url(#mid)"/>
<path d="M-22.3,462 L167.1,212.5 L278.5,32.3 L389.9,212.5 L579.3,462 Z" fill="url(#main)"/>
<path d="M-22.3,462 L167.1,212.5 L278.5,32.3 L278.5,462 Z" fill="url(#rockL)" opacity="0.45"/>
<path d="M278.5,32.3 L222.8,184.8 L189.4,268" fill="none" stroke="#2f3a2c" stroke-width="2" opacity="0.4" stroke-linejoin="round"/>
<path d="M278.5,32.3 L334.2,175.6 L373.2,263.3" fill="none" stroke="#2f3a2c" stroke-width="2" opacity="0.4" stroke-linejoin="round"/>
<path d="M236.7,69.3 L253.4,46.2 L278.5,32.3 L303.6,46.2 L320.3,69.3 L303.6,73 L289.6,57.8 L275.7,73.9 L261.8,57.8 L247.9,73 Z" fill="#f4fbff"/>
<path d="M278.5,32.3 L264.6,50.8 L270.1,69.3" fill="#dfeefc" opacity="0.7"/>
<ellipse cx="278.5" cy="323.4" rx="334.2" ry="32.3" fill="#ffffff" opacity="0.16"/>
<g><line x1="78" y1="385.8" x2="78" y2="334.5" stroke="#1f2937" stroke-width="23" stroke-linecap="round" opacity="0.18"/><line x1="117" y1="385.8" x2="117" y2="283.2" stroke="#1f2937" stroke-width="23" stroke-linecap="round" opacity="0.18"/><line x1="156" y1="385.8" x2="156" y2="231.9" stroke="#1f2937" stroke-width="23" stroke-linecap="round" opacity="0.18"/><line x1="194.9" y1="385.8" x2="194.9" y2="180.6" stroke="#1f2937" stroke-width="23" stroke-linecap="round" opacity="0.18"/><line x1="233.9" y1="385.8" x2="233.9" y2="129.4" stroke="#1f2937" stroke-width="23" stroke-linecap="round" opacity="0.18"/><line x1="278.5" y1="385.8" x2="278.5" y2="78.1" stroke="#1f2937" stroke-width="23" stroke-linecap="round" opacity="0.18"/><line x1="323.1" y1="385.8" x2="323.1" y2="129.4" stroke="#1f2937" stroke-width="23" stroke-linecap="round" opacity="0.18"/><line x1="362.1" y1="385.8" x2="362.1" y2="180.6" stroke="#1f2937" stroke-width="23" stroke-linecap="round" opacity="0.18"/><line x1="401" y1="385.8" x2="401" y2="231.9" stroke="#1f2937" stroke-width="23" stroke-linecap="round" opacity="0.18"/><line x1="440" y1="385.8" x2="440" y2="283.2" stroke="#1f2937" stroke-width="23" stroke-linecap="round" opacity="0.18"/><line x1="479" y1="385.8" x2="479" y2="334.5" stroke="#1f2937" stroke-width="23" stroke-linecap="round" opacity="0.18"/></g>
<g filter="url(#soft)"><circle cx="78" cy="385.8" r="10.5" fill="#ffffff" stroke="#cbd5e1" stroke-width="1.5" opacity="0.96"/><circle cx="78" cy="360.1" r="10.5" fill="#ffffff" stroke="#cbd5e1" stroke-width="1.5" opacity="0.96"/><circle cx="78" cy="334.5" r="10.5" fill="#fff7e6" stroke="#f59e0b" stroke-width="2.5" opacity="0.96"/><circle cx="117" cy="385.8" r="10.5" fill="#ffffff" stroke="#cbd5e1" stroke-width="1.5" opacity="0.96"/><circle cx="117" cy="360.1" r="10.5" fill="#ffffff" stroke="#cbd5e1" stroke-width="1.5" opacity="0.96"/><circle cx="117" cy="334.5" r="10.5" fill="#ffffff" stroke="#cbd5e1" stroke-width="1.5" opacity="0.96"/><circle cx="117" cy="308.8" r="10.5" fill="#ffffff" stroke="#cbd5e1" stroke-width="1.5" opacity="0.96"/><circle cx="117" cy="283.2" r="10.5" fill="#fff7e6" stroke="#f59e0b" stroke-width="2.5" opacity="0.96"/><circle cx="156" cy="385.8" r="10.5" fill="#ffffff" stroke="#cbd5e1" stroke-width="1.5" opacity="0.96"/><circle cx="156" cy="360.1" r="10.5" fill="#ffffff" stroke="#cbd5e1" stroke-width="1.5" opacity="0.96"/><circle cx="156" cy="334.5" r="10.5" fill="#ffffff" stroke="#cbd5e1" stroke-width="1.5" opacity="0.96"/><circle cx="156" cy="308.8" r="10.5" fill="#ffffff" stroke="#cbd5e1" stroke-width="1.5" opacity="0.96"/><circle cx="156" cy="283.2" r="10.5" fill="#ffffff" stroke="#cbd5e1" stroke-width="1.5" opacity="0.96"/><circle cx="156" cy="257.6" r="10.5" fill="#ffffff" stroke="#cbd5e1" stroke-width="1.5" opacity="0.96"/><circle cx="156" cy="231.9" r="10.5" fill="#fff7e6" stroke="#f59e0b" stroke-width="2.5" opacity="0.96"/><circle cx="194.9" cy="385.8" r="10.5" fill="#ffffff" stroke="#cbd5e1" stroke-width="1.5" opacity="0.96"/><circle cx="194.9" cy="360.1" r="10.5" fill="#ffffff" stroke="#cbd5e1" stroke-width="1.5" opacity="0.96"/><circle cx="194.9" cy="334.5" r="10.5" fill="#ffffff" stroke="#cbd5e1" stroke-width="1.5" opacity="0.96"/><circle cx="194.9" cy="308.8" r="10.5" fill="#ffffff" stroke="#cbd5e1" stroke-width="1.5" opacity="0.96"/><circle cx="194.9" cy="283.2" r="10.5" fill="#ffffff" stroke="#cbd5e1" stroke-width="1.5" opacity="0.96"/><circle cx="194.9" cy="257.6" r="10.5" fill="#ffffff" stroke="#cbd5e1" stroke-width="1.5" opacity="0.96"/><circle cx="194.9" cy="231.9" r="10.5" fill="#ffffff" stroke="#cbd5e1" stroke-width="1.5" opacity="0.96"/><circle cx="194.9" cy="206.3" r="10.5" fill="#ffffff" stroke="#cbd5e1" stroke-width="1.5" opacity="0.96"/><circle cx="194.9" cy="180.6" r="10.5" fill="#fff7e6" stroke="#f59e0b" stroke-width="2.5" opacity="0.96"/><circle cx="233.9" cy="385.8" r="10.5" fill="#ffffff" stroke="#cbd5e1" stroke-width="1.5" opacity="0.96"/><circle cx="233.9" cy="360.1" r="10.5" fill="#ffffff" stroke="#cbd5e1" stroke-width="1.5" opacity="0.96"/><circle cx="233.9" cy="334.5" r="10.5" fill="#ffffff" stroke="#cbd5e1" stroke-width="1.5" opacity="0.96"/><circle cx="233.9" cy="308.8" r="10.5" fill="#ffffff" stroke="#cbd5e1" stroke-width="1.5" opacity="0.96"/><circle cx="233.9" cy="283.2" r="10.5" fill="#ffffff" stroke="#cbd5e1" stroke-width="1.5" opacity="0.96"/><circle cx="233.9" cy="257.6" r="10.5" fill="#ffffff" stroke="#cbd5e1" stroke-width="1.5" opacity="0.96"/><circle cx="233.9" cy="231.9" r="10.5" fill="#ffffff" stroke="#cbd5e1" stroke-width="1.5" opacity="0.96"/><circle cx="233.9" cy="206.3" r="10.5" fill="#ffffff" stroke="#cbd5e1" stroke-width="1.5" opacity="0.96"/><circle cx="233.9" cy="180.6" r="10.5" fill="#ffffff" stroke="#cbd5e1" stroke-width="1.5" opacity="0.96"/><circle cx="233.9" cy="155" r="10.5" fill="#ffffff" stroke="#cbd5e1" stroke-width="1.5" opacity="0.96"/><circle cx="233.9" cy="129.4" r="10.5" fill="#fff7e6" stroke="#f59e0b" stroke-width="2.5" opacity="0.96"/><circle cx="278.5" cy="385.8" r="10.5" fill="#ffffff" stroke="#cbd5e1" stroke-width="1.5" opacity="0.96"/><circle cx="278.5" cy="360.1" r="10.5" fill="#ffffff" stroke="#cbd5e1" stroke-width="1.5" opacity="0.96"/><circle cx="278.5" cy="334.5" r="10.5" fill="#ffffff" stroke="#cbd5e1" stroke-width="1.5" opacity="0.96"/><circle cx="278.5" cy="308.8" r="10.5" fill="#ffffff" stroke="#cbd5e1" stroke-width="1.5" opacity="0.96"/><circle cx="278.5" cy="283.2" r="10.5" fill="#ffffff" stroke="#cbd5e1" stroke-width="1.5" opacity="0.96"/><circle cx="278.5" cy="257.6" r="10.5" fill="#ffffff" stroke="#cbd5e1" stroke-width="1.5" opacity="0.96"/><circle cx="278.5" cy="231.9" r="10.5" fill="#ffffff" stroke="#cbd5e1" stroke-width="1.5" opacity="0.96"/><circle cx="278.5" cy="206.3" r="10.5" fill="#ffffff" stroke="#cbd5e1" stroke-width="1.5" opacity="0.96"/><circle cx="278.5" cy="180.6" r="10.5" fill="#ffffff" stroke="#cbd5e1" stroke-width="1.5" opacity="0.96"/><circle cx="278.5" cy="155" r="10.5" fill="#ffffff" stroke="#cbd5e1" stroke-width="1.5" opacity="0.96"/><circle cx="278.5" cy="129.4" r="10.5" fill="#ffffff" stroke="#cbd5e1" stroke-width="1.5" opacity="0.96"/><circle cx="278.5" cy="103.7" r="10.5" fill="#ffffff" stroke="#cbd5e1" stroke-width="1.5" opacity="0.96"/><circle cx="278.5" cy="78.1" r="10.5" fill="#fff7e6" stroke="#f59e0b" stroke-width="2.5" opacity="0.96"/><circle cx="323.1" cy="385.8" r="10.5" fill="#ffffff" stroke="#cbd5e1" stroke-width="1.5" opacity="0.96"/><circle cx="323.1" cy="360.1" r="10.5" fill="#ffffff" stroke="#cbd5e1" stroke-width="1.5" opacity="0.96"/><circle cx="323.1" cy="334.5" r="10.5" fill="#ffffff" stroke="#cbd5e1" stroke-width="1.5" opacity="0.96"/><circle cx="323.1" cy="308.8" r="10.5" fill="#ffffff" stroke="#cbd5e1" stroke-width="1.5" opacity="0.96"/><circle cx="323.1" cy="283.2" r="10.5" fill="#ffffff" stroke="#cbd5e1" stroke-width="1.5" opacity="0.96"/><circle cx="323.1" cy="257.6" r="10.5" fill="#ffffff" stroke="#cbd5e1" stroke-width="1.5" opacity="0.96"/><circle cx="323.1" cy="231.9" r="10.5" fill="#ffffff" stroke="#cbd5e1" stroke-width="1.5" opacity="0.96"/><circle cx="323.1" cy="206.3" r="10.5" fill="#ffffff" stroke="#cbd5e1" stroke-width="1.5" opacity="0.96"/><circle cx="323.1" cy="180.6" r="10.5" fill="#ffffff" stroke="#cbd5e1" stroke-width="1.5" opacity="0.96"/><circle cx="323.1" cy="155" r="10.5" fill="#ffffff" stroke="#cbd5e1" stroke-width="1.5" opacity="0.96"/><circle cx="323.1" cy="129.4" r="10.5" fill="#fff7e6" stroke="#f59e0b" stroke-width="2.5" opacity="0.96"/><circle cx="362.1" cy="385.8" r="10.5" fill="#ffffff" stroke="#cbd5e1" stroke-width="1.5" opacity="0.96"/><circle cx="362.1" cy="360.1" r="10.5" fill="#ffffff" stroke="#cbd5e1" stroke-width="1.5" opacity="0.96"/><circle cx="362.1" cy="334.5" r="10.5" fill="#ffffff" stroke="#cbd5e1" stroke-width="1.5" opacity="0.96"/><circle cx="362.1" cy="308.8" r="10.5" fill="#ffffff" stroke="#cbd5e1" stroke-width="1.5" opacity="0.96"/><circle cx="362.1" cy="283.2" r="10.5" fill="#ffffff" stroke="#cbd5e1" stroke-width="1.5" opacity="0.96"/><circle cx="362.1" cy="257.6" r="10.5" fill="#ffffff" stroke="#cbd5e1" stroke-width="1.5" opacity="0.96"/><circle cx="362.1" cy="231.9" r="10.5" fill="#ffffff" stroke="#cbd5e1" stroke-width="1.5" opacity="0.96"/><circle cx="362.1" cy="206.3" r="10.5" fill="#ffffff" stroke="#cbd5e1" stroke-width="1.5" opacity="0.96"/><circle cx="362.1" cy="180.6" r="10.5" fill="#fff7e6" stroke="#f59e0b" stroke-width="2.5" opacity="0.96"/><circle cx="401" cy="385.8" r="10.5" fill="#ffffff" stroke="#cbd5e1" stroke-width="1.5" opacity="0.96"/><circle cx="401" cy="360.1" r="10.5" fill="#ffffff" stroke="#cbd5e1" stroke-width="1.5" opacity="0.96"/><circle cx="401" cy="334.5" r="10.5" fill="#ffffff" stroke="#cbd5e1" stroke-width="1.5" opacity="0.96"/><circle cx="401" cy="308.8" r="10.5" fill="#ffffff" stroke="#cbd5e1" stroke-width="1.5" opacity="0.96"/><circle cx="401" cy="283.2" r="10.5" fill="#ffffff" stroke="#cbd5e1" stroke-width="1.5" opacity="0.96"/><circle cx="401" cy="257.6" r="10.5" fill="#ffffff" stroke="#cbd5e1" stroke-width="1.5" opacity="0.96"/><circle cx="401" cy="231.9" r="10.5" fill="#fff7e6" stroke="#f59e0b" stroke-width="2.5" opacity="0.96"/><circle cx="440" cy="385.8" r="10.5" fill="#ffffff" stroke="#cbd5e1" stroke-width="1.5" opacity="0.96"/><circle cx="440" cy="360.1" r="10.5" fill="#ffffff" stroke="#cbd5e1" stroke-width="1.5" opacity="0.96"/><circle cx="440" cy="334.5" r="10.5" fill="#ffffff" stroke="#cbd5e1" stroke-width="1.5" opacity="0.96"/><circle cx="440" cy="308.8" r="10.5" fill="#ffffff" stroke="#cbd5e1" stroke-width="1.5" opacity="0.96"/><circle cx="440" cy="283.2" r="10.5" fill="#fff7e6" stroke="#f59e0b" stroke-width="2.5" opacity="0.96"/><circle cx="479" cy="385.8" r="10.5" fill="#ffffff" stroke="#cbd5e1" stroke-width="1.5" opacity="0.96"/><circle cx="479" cy="360.1" r="10.5" fill="#ffffff" stroke="#cbd5e1" stroke-width="1.5" opacity="0.96"/><circle cx="479" cy="334.5" r="10.5" fill="#fff7e6" stroke="#f59e0b" stroke-width="2.5" opacity="0.96"/></g>
<g filter="url(#soft)"><rect x="78.8" y="313.5" width="2" height="15" fill="#7c2d12"/><path d="M80.6,313.5 l12,4 l-12,4 Z" fill="#ef4444"/></g><g filter="url(#soft)"><rect x="65" y="396.3" width="26" height="22" rx="6" fill="#f87171"/><text x="78" y="412.3" font-family="'Segoe UI',Arial,sans-serif" font-size="15" font-weight="800" fill="#fff" text-anchor="middle">2</text></g><g filter="url(#soft)"><rect x="117.8" y="262.2" width="2" height="15" fill="#7c2d12"/><path d="M119.6,262.2 l12,4 l-12,4 Z" fill="#ef4444"/></g><g filter="url(#soft)"><rect x="104" y="396.3" width="26" height="22" rx="6" fill="#fbbf24"/><text x="117" y="412.3" font-family="'Segoe UI',Arial,sans-serif" font-size="15" font-weight="800" fill="#fff" text-anchor="middle">3</text></g><g filter="url(#soft)"><rect x="156.8" y="210.9" width="2" height="15" fill="#7c2d12"/><path d="M158.6,210.9 l12,4 l-12,4 Z" fill="#ef4444"/></g><g filter="url(#soft)"><rect x="143" y="396.3" width="26" height="22" rx="6" fill="#34d399"/><text x="156" y="412.3" font-family="'Segoe UI',Arial,sans-serif" font-size="15" font-weight="800" fill="#fff" text-anchor="middle">4</text></g><g filter="url(#soft)"><rect x="195.70000000000002" y="159.6" width="2" height="15" fill="#7c2d12"/><path d="M197.5,159.6 l12,4 l-12,4 Z" fill="#ef4444"/></g><g filter="url(#soft)"><rect x="181.9" y="396.3" width="26" height="22" rx="6" fill="#60a5fa"/><text x="194.9" y="412.3" font-family="'Segoe UI',Arial,sans-serif" font-size="15" font-weight="800" fill="#fff" text-anchor="middle">5</text></g><g filter="url(#soft)"><rect x="234.70000000000002" y="108.4" width="2" height="15" fill="#7c2d12"/><path d="M236.5,108.4 l12,4 l-12,4 Z" fill="#ef4444"/></g><g filter="url(#soft)"><rect x="220.9" y="396.3" width="26" height="22" rx="6" fill="#a78bfa"/><text x="233.9" y="412.3" font-family="'Segoe UI',Arial,sans-serif" font-size="15" font-weight="800" fill="#fff" text-anchor="middle">6</text></g><g filter="url(#soft)"><rect x="279.3" y="57.099999999999994" width="2" height="15" fill="#7c2d12"/><path d="M281.1,57.099999999999994 l12,4 l-12,4 Z" fill="#ef4444"/></g><g filter="url(#soft)"><rect x="265.5" y="396.3" width="26" height="22" rx="6" fill="#f472b6"/><text x="278.5" y="412.3" font-family="'Segoe UI',Arial,sans-serif" font-size="15" font-weight="800" fill="#fff" text-anchor="middle">7</text></g><g filter="url(#soft)"><rect x="323.90000000000003" y="108.4" width="2" height="15" fill="#7c2d12"/><path d="M325.70000000000005,108.4 l12,4 l-12,4 Z" fill="#ef4444"/></g><g filter="url(#soft)"><rect x="310.1" y="396.3" width="26" height="22" rx="6" fill="#22d3ee"/><text x="323.1" y="412.3" font-family="'Segoe UI',Arial,sans-serif" font-size="15" font-weight="800" fill="#fff" text-anchor="middle">8</text></g><g filter="url(#soft)"><rect x="362.90000000000003" y="159.6" width="2" height="15" fill="#7c2d12"/><path d="M364.70000000000005,159.6 l12,4 l-12,4 Z" fill="#ef4444"/></g><g filter="url(#soft)"><rect x="349.1" y="396.3" width="26" height="22" rx="6" fill="#fb923c"/><text x="362.1" y="412.3" font-family="'Segoe UI',Arial,sans-serif" font-size="15" font-weight="800" fill="#fff" text-anchor="middle">9</text></g><g filter="url(#soft)"><rect x="401.8" y="210.9" width="2" height="15" fill="#7c2d12"/><path d="M403.6,210.9 l12,4 l-12,4 Z" fill="#ef4444"/></g><g filter="url(#soft)"><rect x="388" y="396.3" width="26" height="22" rx="6" fill="#a3e635"/><text x="401" y="412.3" font-family="'Segoe UI',Arial,sans-serif" font-size="15" font-weight="800" fill="#fff" text-anchor="middle">10</text></g><g filter="url(#soft)"><rect x="440.8" y="262.2" width="2" height="15" fill="#7c2d12"/><path d="M442.6,262.2 l12,4 l-12,4 Z" fill="#ef4444"/></g><g filter="url(#soft)"><rect x="427" y="396.3" width="26" height="22" rx="6" fill="#e879f9"/><text x="440" y="412.3" font-family="'Segoe UI',Arial,sans-serif" font-size="15" font-weight="800" fill="#fff" text-anchor="middle">11</text></g><g filter="url(#soft)"><rect x="479.8" y="313.5" width="2" height="15" fill="#7c2d12"/><path d="M481.6,313.5 l12,4 l-12,4 Z" fill="#ef4444"/></g><g filter="url(#soft)"><rect x="466" y="396.3" width="26" height="22" rx="6" fill="#94a3b8"/><text x="479" y="412.3" font-family="'Segoe UI',Arial,sans-serif" font-size="15" font-weight="800" fill="#fff" text-anchor="middle">12</text></g>
<text x="278.5" y="441.2" font-family="'Segoe UI',Arial,sans-serif" font-size="13" font-weight="800" letter-spacing="3" fill="#475569" text-anchor="middle" opacity="0.8">CAN'T STOP</text>
</svg>
