<svg xmlns="http://www.w3.org/2000/svg" viewBox="0 0 800 450" preserveAspectRatio="xMidYMid slice">
  <defs>
    <linearGradient id="bg" x1="0" y1="0" x2="1" y2="1">
      <stop offset="0" stop-color="#4c1d95"/>
      <stop offset="1" stop-color="#2e1065"/>
    </linearGradient>
    <radialGradient id="glow" cx="0.5" cy="0.35" r="0.8">
      <stop offset="0" stop-color="#e879f9" stop-opacity="0.35"/>
      <stop offset="1" stop-color="#e879f9" stop-opacity="0"/>
    </radialGradient>
  </defs>
  <rect width="800" height="450" fill="url(#bg)"/>
  <rect width="800" height="450" fill="url(#glow)"/>
  <g stroke="#2e1065" stroke-width="3">
    <!-- gem grid: row of 3 matching highlighted -->
    <circle cx="290" cy="150" r="34" fill="#22d3ee"/>
    <rect x="356" y="116" width="68" height="68" rx="14" fill="#f43f5e"/>
    <polygon points="490,116 524,150 490,184 456,150" fill="#facc15"/>
    <circle cx="290" cy="225" r="34" fill="#f43f5e"/>
    <rect x="356" y="191" width="68" height="68" rx="14" fill="#facc15"/>
    <polygon points="490,191 524,225 490,259 456,225" fill="#4ade80"/>
    <!-- matched row (green diamonds, glowing) -->
    <polygon points="290,300 324,334 290,368 256,334" fill="#34d399"/>
    <polygon points="390,300 424,334 390,368 356,334" fill="#34d399"/>
    <polygon points="490,300 524,334 490,368 456,334" fill="#34d399"/>
  </g>
  <g fill="#ffffff" opacity="0.85">
    <circle cx="560" cy="120" r="4"/><circle cx="240" cy="290" r="4"/><circle cx="540" cy="300" r="5"/>
  </g>
  <g transform="translate(400 410)" text-anchor="middle" font-family="system-ui, -apple-system, Segoe UI, Roboto, sans-serif">
    <text font-size="44" font-weight="800" fill="#ffffff" letter-spacing="4">ALIGNE-3</text>
  </g>
</svg>
