<svg xmlns="http://www.w3.org/2000/svg" viewBox="0 0 800 450" preserveAspectRatio="xMidYMid slice">
  <defs>
    <linearGradient id="bg" x1="0" y1="0" x2="1" y2="1">
      <stop offset="0" stop-color="#064e3b"/>
      <stop offset="1" stop-color="#022c22"/>
    </linearGradient>
    <radialGradient id="glow" cx="0.7" cy="0.3" r="0.8">
      <stop offset="0" stop-color="#34d399" stop-opacity="0.35"/>
      <stop offset="1" stop-color="#34d399" stop-opacity="0"/>
    </radialGradient>
  </defs>
  <rect width="800" height="450" fill="url(#bg)"/>
  <rect width="800" height="450" fill="url(#glow)"/>
  <g opacity="0.08" stroke="#34d399" stroke-width="1">
    <path d="M0 90 H800 M0 180 H800 M0 270 H800 M0 360 H800 M90 0 V450 M180 0 V450 M270 0 V450 M360 0 V450 M450 0 V450 M540 0 V450 M630 0 V450 M720 0 V450"/>
  </g>
  <g>
    <rect x="220" y="150" width="44" height="44" rx="8" fill="#22c55e"/>
    <rect x="264" y="150" width="44" height="44" rx="8" fill="#22c55e"/>
    <rect x="308" y="150" width="44" height="44" rx="8" fill="#22c55e"/>
    <rect x="308" y="194" width="44" height="44" rx="8" fill="#16a34a"/>
    <rect x="308" y="238" width="44" height="44" rx="8" fill="#16a34a"/>
    <rect x="352" y="238" width="44" height="44" rx="8" fill="#16a34a"/>
    <rect x="396" y="238" width="44" height="44" rx="10" fill="#4ade80"/>
    <circle cx="424" cy="252" r="5" fill="#022c22"/>
    <circle cx="424" cy="268" r="5" fill="#022c22"/>
    <circle cx="540" cy="180" r="22" fill="#ef4444"/>
    <path d="M540 158 q6 -14 16 -14" stroke="#16a34a" stroke-width="6" fill="none" stroke-linecap="round"/>
  </g>
  <g transform="translate(400 380)" text-anchor="middle" font-family="system-ui, -apple-system, Segoe UI, Roboto, sans-serif">
    <text font-size="44" font-weight="800" fill="#ffffff" letter-spacing="6">SNAKE</text>
  </g>
</svg>
