<svg xmlns="http://www.w3.org/2000/svg" viewBox="0 0 512 512" width="512" height="512">
  <defs>
    <linearGradient id="bg" x1="0" y1="0" x2="1" y2="1">
      <stop offset="0%" stop-color="#378ADD"/>
      <stop offset="100%" stop-color="#0C447C"/>
    </linearGradient>
  </defs>
  <!-- rayons derrière -->
  <g opacity="0.28" stroke="#85B7EB" stroke-width="6" stroke-linecap="round">
    <line x1="256" y1="18"  x2="256" y2="58"/>
    <line x1="256" y1="454" x2="256" y2="494"/>
    <line x1="18"  y1="256" x2="58"  y2="256"/>
    <line x1="454" y1="256" x2="494" y2="256"/>
    <line x1="66"  y1="66"  x2="96"  y2="96"/>
    <line x1="416" y1="416" x2="446" y2="446"/>
    <line x1="446" y1="66"  x2="416" y2="96"/>
    <line x1="66"  y1="446" x2="96"  y2="416"/>
  </g>
  <!-- étoiles 4 branches coins -->
  <g fill="#B5D4F4" opacity="0.9">
    <path d="M40 256 L50 246 L60 256 L50 266 Z"/>
    <path d="M452 256 L462 246 L472 256 L462 266 Z"/>
    <path d="M256 40 L266 30 L276 40 L266 50 Z"/>
    <path d="M406 86 L413 78 L420 86 L413 94 Z"/>
    <path d="M86 406 L93 398 L100 406 L93 414 Z"/>
    <path d="M420 406 L427 398 L434 406 L427 414 Z"/>
    <path d="M86 92 L93 84 L100 92 L93 100 Z"/>
  </g>
  <!-- petites étincelles -->
  <circle cx="66" cy="66" r="7" fill="#B5D4F4" opacity="0.5"/>
  <circle cx="446" cy="66" r="7" fill="#B5D4F4" opacity="0.5"/>
  <circle cx="66" cy="446" r="7" fill="#B5D4F4" opacity="0.5"/>
  <circle cx="446" cy="446" r="7" fill="#B5D4F4" opacity="0.5"/>
  <!-- fond dé -->
  <rect x="68" y="68" width="376" height="376" rx="84" fill="url(#bg)"/>
  <!-- contour lumineux -->
  <rect x="68" y="68" width="376" height="376" rx="84" fill="none" stroke="#85B7EB" stroke-width="5" opacity="0.5"/>
  <!-- reflet haut -->
  <rect x="104" y="76" width="180" height="18" rx="9" fill="white" opacity="0.18"/>
  <!-- points face 5 -->
  <circle cx="172" cy="172" r="38" fill="white"/>
  <circle cx="340" cy="172" r="38" fill="white"/>
  <circle cx="256" cy="256" r="38" fill="white"/>
  <circle cx="172" cy="340" r="38" fill="white"/>
  <circle cx="340" cy="340" r="38" fill="white"/>
  <!-- étincelles aux coins du dé -->
  <circle cx="68"  cy="68"  r="10" fill="#B5D4F4" opacity="0.9"/>
  <circle cx="444" cy="68"  r="10" fill="#B5D4F4" opacity="0.9"/>
  <circle cx="68"  cy="444" r="10" fill="#B5D4F4" opacity="0.9"/>
  <circle cx="444" cy="444" r="10" fill="#B5D4F4" opacity="0.9"/>
</svg>
