<svg xmlns="http://www.w3.org/2000/svg" viewBox="0 0 640 768" width="640" height="768" role="img" aria-label="Sprites Atlantide">
<title>Sprites Atlantide</title>
<desc>Planche de sprites pour le jeu Atlantide : tuiles, atlantes, bateaux, créatures et effets</desc>
<rect width="640" height="768" fill="#1a2634"/>
<text x="20" y="28" fill="#7ec8e3" font-family="monospace" font-size="11" font-weight="700">TUILES DE TERRAIN</text>
<g transform="translate(20,38)">
  <rect width="72" height="72" rx="6" fill="#0a1e3a" stroke="#1a3a6a" stroke-width="1.5"/>
  <!-- monticule de sable -->
    <ellipse cx="36" cy="54" rx="29" ry="9" fill="#e7c873"/>
    <ellipse cx="36" cy="52" rx="22" ry="6" fill="#f4e3a4"/>
    <!-- tronc courbé du palmier -->
    <path d="M35 52 Q31 38 38 28" fill="none" stroke="#8a6326" stroke-width="3.5" stroke-linecap="round"/>
    <path d="M35 52 Q31 38 38 28" fill="none" stroke="#a87d3a" stroke-width="1.4" stroke-linecap="round"/>
    <!-- palmes -->
    <path d="M38 27 Q24 20 16 26 Q26 24 36 30 Z" fill="#3d9a4c"/>
    <path d="M38 27 Q52 18 60 24 Q50 24 40 30 Z" fill="#48ab57"/>
    <path d="M38 27 Q30 14 22 14 Q33 18 38 30 Z" fill="#33893f"/>
    <path d="M38 27 Q46 14 54 14 Q43 18 40 30 Z" fill="#3d9a4c"/>
    <!-- noix de coco -->
    <circle cx="37" cy="31" r="2" fill="#6e4a1f"/>
    <circle cx="41" cy="31" r="2" fill="#6e4a1f"/>
    <!-- coquillage sur le sable -->
    <path d="M50 52 q3 -4 6 0 q-3 1 -6 0 Z" fill="#f6cdb0" stroke="#d9a285" stroke-width="0.6"/>
  <text x="36" y="83" fill="#cccccc" font-family="monospace" font-size="10" text-anchor="middle">Plage</text>
</g>
<g transform="translate(108,38)">
  <rect width="72" height="72" rx="6" fill="#0a1e3a" stroke="#1a3a6a" stroke-width="1.5"/>
  <!-- conifère central -->
    <polygon points="36,10 24,32 48,32" fill="#256b34"/>
    <polygon points="36,22 20,46 52,46" fill="#2f7d40"/>
    <polygon points="36,34 17,60 55,60" fill="#3c944c"/>
    <rect x="33" y="58" width="6" height="9" rx="1" fill="#6e4a1f"/>
    <!-- arbustes latéraux -->
    <circle cx="14" cy="54" r="8" fill="#359048"/>
    <circle cx="58" cy="54" r="8" fill="#2f8240"/>
    <circle cx="14" cy="54" r="4" fill="#49a85c" opacity="0.6"/>
    <!-- reflets -->
    <path d="M30 30 q6 -4 12 0 M27 44 q9 -5 18 0" fill="none" stroke="#67c178" stroke-width="1.4" stroke-linecap="round" opacity="0.7"/>
  <text x="36" y="83" fill="#cccccc" font-family="monospace" font-size="10" text-anchor="middle">Forêt</text>
</g>
<g transform="translate(196,38)">
  <rect width="72" height="72" rx="6" fill="#0a1e3a" stroke="#1a3a6a" stroke-width="1.5"/>
  <!-- pic secondaire -->
    <polygon points="50,30 30,62 66,62" fill="#6a7a8c"/>
    <!-- pic principal -->
    <polygon points="30,8 6,62 54,62" fill="#8b9bac"/>
    <!-- neige sommet -->
    <polygon points="30,8 21,28 39,28 33,20 36,24" fill="#eef3f8"/>
    <polygon points="50,30 43,42 57,42" fill="#dce6ee"/>
    <!-- ombre flanc -->
    <polygon points="30,8 30,62 12,62" fill="#76869a" opacity="0.55"/>
    <!-- stries rocheuses -->
    <path d="M24 40 l8 10 M34 34 l6 9" fill="none" stroke="#5f6e80" stroke-width="1.2" stroke-linecap="round" opacity="0.7"/>
  <text x="36" y="83" fill="#cccccc" font-family="monospace" font-size="10" text-anchor="middle">Montagne</text>
</g>
<g transform="translate(284,38)">
  <rect width="72" height="72" rx="6" fill="#0a1e3a" stroke="#1a3a6a" stroke-width="1.5"/>
  <!-- cône -->
    <polygon points="36,12 8,62 64,62" fill="#5a3026"/>
    <polygon points="36,12 36,62 12,62" fill="#46241c" opacity="0.5"/>
    <!-- cratère -->
    <polygon points="36,12 27,28 45,28" fill="#2a120e"/>
    <!-- coulées de lave -->
    <path d="M30 28 Q26 40 22 58 Q27 56 30 46 Q32 56 36 60 Q40 56 42 46 Q45 56 50 58 Q46 40 42 28 Z" fill="#e0410e"/>
    <path d="M31 28 Q29 38 27 50 Q31 48 33 40 Q35 50 36 56 Q37 50 39 40 Q41 48 45 50 Q43 38 41 28 Z" fill="#f5821f"/>
    <path d="M34 30 Q33 42 36 54 Q39 42 38 30 Z" fill="#ffce2b"/>
    <!-- projections -->
    <circle cx="30" cy="14" r="2" fill="#ff8a2a"/>
    <circle cx="44" cy="12" r="2.4" fill="#ffb33a"/>
    <circle cx="37" cy="7" r="1.6" fill="#ffd95e"/>
    <!-- fumée -->
    <circle cx="33" cy="9" r="5" fill="#6b6b6b" opacity="0.55"/>
    <circle cx="41" cy="6" r="6" fill="#585858" opacity="0.5"/>
  <text x="36" y="83" fill="#cccccc" font-family="monospace" font-size="10" text-anchor="middle">Volcan</text>
</g>
<g transform="translate(372,38)">
  <rect width="72" height="72" rx="6" fill="#0a1e3a" stroke="#1a3a6a" stroke-width="1.5"/>
  <!-- îlot -->
    <ellipse cx="36" cy="56" rx="27" ry="9" fill="#3f9a52"/>
    <ellipse cx="36" cy="54" rx="20" ry="6" fill="#e7c873"/>
    <!-- colonne grecque (refuge / Corail) -->
    <rect x="26" y="44" width="20" height="4" rx="1" fill="#f0ead6"/>
    <rect x="28" y="22" width="16" height="22" fill="#f6f1df"/>
    <path d="M28 22 v22 M32 22 v22 M36 22 v22 M40 22 v22 M44 22 v22" stroke="#d8cfac" stroke-width="0.8"/>
    <rect x="24" y="16" width="24" height="6" rx="1" fill="#f0ead6"/>
    <!-- chapiteau / fronton -->
    <polygon points="22,16 50,16 36,8" fill="#e8c45a"/>
    <!-- corail décoratif -->
    <path d="M14 52 q0 -7 4 -9 q-1 5 1 9 Z" fill="#e0728a"/>
    <path d="M58 52 q0 -6 -4 -8 q1 5 -1 8 Z" fill="#e0728a"/>
    <!-- lueur -->
    <ellipse cx="36" cy="11" rx="8" ry="3.5" fill="#fff2a8" opacity="0.7"/>
  <text x="36" y="83" fill="#cccccc" font-family="monospace" font-size="10" text-anchor="middle">Refuge</text>
</g>
<g transform="translate(460,38)">
  <rect width="72" height="72" rx="6" fill="#0a1e3a" stroke="#1a3a6a" stroke-width="1.5"/>
  <!-- spirale type notice -->
    <path d="M36 8
             a28 28 0 1 1 -19.8 8.2
             a20 20 0 1 0 14.1 -5.9
             a12 12 0 1 1 -8.5 3.5
             a5 5 0 1 0 3.5 -1.5"
          fill="none" stroke="#2a8acc" stroke-width="4" stroke-linecap="round"/>
    <path d="M36 8
             a28 28 0 1 1 -19.8 8.2
             a20 20 0 1 0 14.1 -5.9
             a12 12 0 1 1 -8.5 3.5
             a5 5 0 1 0 3.5 -1.5"
          fill="none" stroke="#7fd0f0" stroke-width="1.6" stroke-linecap="round" opacity="0.7"/>
    <circle cx="38" cy="40" r="3" fill="#bfe8fb"/>
  <text x="36" y="83" fill="#cccccc" font-family="monospace" font-size="10" text-anchor="middle">Tourbillon</text>
</g>
<g transform="translate(548,38)">
  <rect width="72" height="72" rx="6" fill="#0a1e3a" stroke="#1a3a6a" stroke-width="1.5"/>
  <path d="M10 30 Q20 22 30 30 Q40 38 50 30 Q60 22 70 30" fill="none" stroke="#4aa8d8" stroke-width="2.5"/>
    <path d="M10 42 Q20 34 30 42 Q40 50 50 42 Q60 34 70 42" fill="none" stroke="#3a98c8" stroke-width="2.5"/>
    <path d="M10 54 Q20 46 30 54 Q40 62 50 54 Q60 46 70 54" fill="none" stroke="#2a88b8" stroke-width="2.5"/>
  <text x="36" y="83" fill="#cccccc" font-family="monospace" font-size="10" text-anchor="middle">Mer</text>
</g>
<text x="20" y="152" fill="#7ec8e3" font-family="monospace" font-size="11" font-weight="700">ATLANTES</text>
<g transform="translate(20,162)">
  <rect width="72" height="72" rx="6" fill="#0a1e3a" stroke="#1a3a6a" stroke-width="1.5"/>
  <!-- jambes -->
    <path d="M30 52 l-3 16 h5 l3 -13 Z" fill="#9e2424"/>
    <path d="M42 52 l3 16 h-5 l-3 -13 Z" fill="#9e2424"/>
    <!-- tunique / toge -->
    <path d="M24 38 Q24 27 36 27 Q48 27 48 38 L46 56 Q36 60 26 56 Z" fill="#d33b3b"/>
    <path d="M30 30 L36 56 L42 30" fill="none" stroke="#f08a8a" stroke-width="2" opacity="0.7"/>
    <!-- bras -->
    <path d="M25 39 Q16 44 14 52" fill="none" stroke="#c43232" stroke-width="5" stroke-linecap="round"/>
    <path d="M47 39 Q56 44 58 52" fill="none" stroke="#c43232" stroke-width="5" stroke-linecap="round"/>
    <!-- mains -->
    <circle cx="13" cy="53" r="2.6" fill="#e8c090"/>
    <circle cx="59" cy="53" r="2.6" fill="#e8c090"/>
    <!-- cou + tête -->
    <rect x="33" y="20" width="6" height="8" rx="2" fill="#e8c090"/>
    <circle cx="36" cy="16" r="9" fill="#f0cfa0"/>
    <!-- cheveux -->
    <path d="M27 15 Q27 5 36 5 Q45 5 45 15 Q42 9 36 9 Q30 9 27 15 Z" fill="#6b4a2a"/>
  <text x="36" y="83" fill="#cccccc" font-family="monospace" font-size="10" text-anchor="middle">Joueur 1</text>
</g>
<g transform="translate(108,162)">
  <rect width="72" height="72" rx="6" fill="#0a1e3a" stroke="#1a3a6a" stroke-width="1.5"/>
  <path d="M30 52 l-3 16 h5 l3 -13 Z" fill="#234c9e"/>
    <path d="M42 52 l3 16 h-5 l-3 -13 Z" fill="#234c9e"/>
    <path d="M24 38 Q24 27 36 27 Q48 27 48 38 L46 56 Q36 60 26 56 Z" fill="#3b6bd3"/>
    <path d="M30 30 L36 56 L42 30" fill="none" stroke="#8ab0f0" stroke-width="2" opacity="0.7"/>
    <path d="M25 39 Q16 44 14 52" fill="none" stroke="#3258c4" stroke-width="5" stroke-linecap="round"/>
    <path d="M47 39 Q56 44 58 52" fill="none" stroke="#3258c4" stroke-width="5" stroke-linecap="round"/>
    <circle cx="13" cy="53" r="2.6" fill="#e8c090"/>
    <circle cx="59" cy="53" r="2.6" fill="#e8c090"/>
    <rect x="33" y="20" width="6" height="8" rx="2" fill="#e8c090"/>
    <circle cx="36" cy="16" r="9" fill="#f0cfa0"/>
    <path d="M27 15 Q27 5 36 5 Q45 5 45 15 Q42 9 36 9 Q30 9 27 15 Z" fill="#6b4a2a"/>
  <text x="36" y="83" fill="#cccccc" font-family="monospace" font-size="10" text-anchor="middle">Joueur 2</text>
</g>
<g transform="translate(196,162)">
  <rect width="72" height="72" rx="6" fill="#0a1e3a" stroke="#1a3a6a" stroke-width="1.5"/>
  <path d="M30 52 l-3 16 h5 l3 -13 Z" fill="#1e7038"/>
    <path d="M42 52 l3 16 h-5 l-3 -13 Z" fill="#1e7038"/>
    <path d="M24 38 Q24 27 36 27 Q48 27 48 38 L46 56 Q36 60 26 56 Z" fill="#34a14f"/>
    <path d="M30 30 L36 56 L42 30" fill="none" stroke="#86dca0" stroke-width="2" opacity="0.7"/>
    <path d="M25 39 Q16 44 14 52" fill="none" stroke="#2a8a44" stroke-width="5" stroke-linecap="round"/>
    <path d="M47 39 Q56 44 58 52" fill="none" stroke="#2a8a44" stroke-width="5" stroke-linecap="round"/>
    <circle cx="13" cy="53" r="2.6" fill="#e8c090"/>
    <circle cx="59" cy="53" r="2.6" fill="#e8c090"/>
    <rect x="33" y="20" width="6" height="8" rx="2" fill="#e8c090"/>
    <circle cx="36" cy="16" r="9" fill="#f0cfa0"/>
    <path d="M27 15 Q27 5 36 5 Q45 5 45 15 Q42 9 36 9 Q30 9 27 15 Z" fill="#6b4a2a"/>
  <text x="36" y="83" fill="#cccccc" font-family="monospace" font-size="10" text-anchor="middle">Joueur 3</text>
</g>
<g transform="translate(284,162)">
  <rect width="72" height="72" rx="6" fill="#0a1e3a" stroke="#1a3a6a" stroke-width="1.5"/>
  <path d="M30 52 l-3 16 h5 l3 -13 Z" fill="#9e7e10"/>
    <path d="M42 52 l3 16 h-5 l-3 -13 Z" fill="#9e7e10"/>
    <path d="M24 38 Q24 27 36 27 Q48 27 48 38 L46 56 Q36 60 26 56 Z" fill="#e6be22"/>
    <path d="M30 30 L36 56 L42 30" fill="none" stroke="#fce58a" stroke-width="2" opacity="0.7"/>
    <path d="M25 39 Q16 44 14 52" fill="none" stroke="#c8a214" stroke-width="5" stroke-linecap="round"/>
    <path d="M47 39 Q56 44 58 52" fill="none" stroke="#c8a214" stroke-width="5" stroke-linecap="round"/>
    <circle cx="13" cy="53" r="2.6" fill="#e8c090"/>
    <circle cx="59" cy="53" r="2.6" fill="#e8c090"/>
    <rect x="33" y="20" width="6" height="8" rx="2" fill="#e8c090"/>
    <circle cx="36" cy="16" r="9" fill="#f0cfa0"/>
    <path d="M27 15 Q27 5 36 5 Q45 5 45 15 Q42 9 36 9 Q30 9 27 15 Z" fill="#6b4a2a"/>
  <text x="36" y="83" fill="#cccccc" font-family="monospace" font-size="10" text-anchor="middle">Joueur 4</text>
</g>
<g transform="translate(372,162)">
  <rect width="72" height="72" rx="6" fill="#0a1e3a" stroke="#1a3a6a" stroke-width="1.5"/>
  <!-- corps immergé -->
    <path d="M18 46 Q34 40 54 46 Q60 48 62 44" fill="none" stroke="#caa074" stroke-width="6" stroke-linecap="round"/>
    <!-- tête -->
    <circle cx="22" cy="42" r="6.5" fill="#f0cfa0"/>
    <path d="M16 40 Q16 33 22 33 Q28 33 28 40 Q25 36 22 36 Q19 36 16 40 Z" fill="#6b4a2a"/>
    <!-- bras qui crawl -->
    <path d="M28 43 Q34 30 42 28" fill="none" stroke="#e8c090" stroke-width="4" stroke-linecap="round"/>
    <circle cx="43" cy="27" r="2.4" fill="#e8c090"/>
    <!-- eau -->
    <path d="M6 50 Q16 44 26 50 Q36 56 46 50 Q56 44 66 50" fill="none" stroke="#4aaad8" stroke-width="2.4" stroke-linecap="round"/>
    <path d="M6 58 Q16 52 26 58 Q36 64 46 58 Q56 52 66 58" fill="none" stroke="#3a8ac8" stroke-width="2.4" stroke-linecap="round"/>
    <!-- éclaboussure -->
    <circle cx="40" cy="46" r="1.3" fill="#bfe4f5"/>
    <circle cx="46" cy="48" r="1" fill="#bfe4f5"/>
  <text x="36" y="83" fill="#cccccc" font-family="monospace" font-size="10" text-anchor="middle">Nageur</text>
</g>
<text x="20" y="276" fill="#7ec8e3" font-family="monospace" font-size="11" font-weight="700">BATEAUX</text>
<g transform="translate(20,286)">
  <rect width="72" height="72" rx="6" fill="#0a1e3a" stroke="#1a3a6a" stroke-width="1.5"/>
  <path d="M14 50 Q36 56 58 50 L54 40 L18 40 Z" fill="#a06020"/>
    <rect x="33" y="20" width="3" height="22" fill="#7a4810"/>
    <path d="M36 20 L58 32 L36 42 Z" fill="#e8e8cc"/>
    <path d="M10 48 Q20 42 30 48 Q40 54 50 48 Q60 42 68 48" fill="none" stroke="#3a88b8" stroke-width="1.5" opacity="0.6"/>
  <text x="36" y="83" fill="#cccccc" font-family="monospace" font-size="10" text-anchor="middle">Barque</text>
</g>
<g transform="translate(108,286)">
  <rect width="72" height="72" rx="6" fill="#0a1e3a" stroke="#1a3a6a" stroke-width="1.5"/>
  <!-- mât -->
    <rect x="35" y="10" width="2.6" height="38" rx="1" fill="#6e4a1f"/>
    <!-- grande voile -->
    <path d="M37 12 Q54 22 52 42 L37 42 Z" fill="#f2ead2"/>
    <path d="M37 12 Q47 20 49 36" fill="none" stroke="#d8c79a" stroke-width="1" opacity="0.8"/>
    <!-- foc -->
    <path d="M35 14 Q20 26 22 42 L35 42 Z" fill="#e6dcc0"/>
    <!-- emblème soleil grec sur la voile -->
    <circle cx="44" cy="28" r="4.5" fill="#e0a93a"/>
    <g stroke="#e0a93a" stroke-width="1.2" stroke-linecap="round">
      <path d="M44 21 v-2 M44 35 v2 M37 28 h-2 M51 28 h2 M39 23 l-1.4 -1.4 M49 33 l1.4 1.4 M49 23 l1.4 -1.4 M39 33 l-1.4 1.4"/>
    </g>
    <!-- coque -->
    <path d="M12 48 Q36 58 60 48 L55 42 L17 42 Z" fill="#9c5e1e"/>
    <path d="M12 48 Q36 58 60 48 L58 45 Q36 53 14 45 Z" fill="#7c4814"/>
    <!-- vagues -->
    <path d="M6 50 Q18 44 30 50 Q42 56 54 50 Q62 46 68 50" fill="none" stroke="#4aaad8" stroke-width="2" stroke-linecap="round" opacity="0.7"/>
    <path d="M8 58 Q20 52 32 58 Q44 64 56 58" fill="none" stroke="#3a8ac8" stroke-width="2" stroke-linecap="round" opacity="0.6"/>
  <text x="36" y="83" fill="#cccccc" font-family="monospace" font-size="10" text-anchor="middle">Voilier</text>
</g>
<g transform="translate(196,286)">
  <rect width="72" height="72" rx="6" fill="#0a1e3a" stroke="#1a3a6a" stroke-width="1.5"/>
  <path d="M14 30 Q36 24 58 30 L54 40 L18 40 Z" fill="#7a3810" opacity="0.7"/>
    <rect x="33" y="38" width="3" height="18" fill="#6a2808" opacity="0.5"/>
    <path d="M8 44 Q20 38 32 44 Q44 50 56 44 Q64 38 70 44" fill="none" stroke="#4aaad8" stroke-width="2"/>
    <path d="M8 54 Q20 48 32 54 Q44 60 56 54 Q64 48 70 54" fill="none" stroke="#3a8ac8" stroke-width="2"/>
    <line x1="28" y1="16" x2="44" y2="28" stroke="#e04040" stroke-width="2.5"/>
    <line x1="44" y1="16" x2="28" y2="28" stroke="#e04040" stroke-width="2.5"/>
  <text x="36" y="83" fill="#cccccc" font-family="monospace" font-size="10" text-anchor="middle">Naufrage</text>
</g>
<g transform="translate(284,286)">
  <rect width="72" height="72" rx="6" fill="#0a1e3a" stroke="#1a3a6a" stroke-width="1.5"/>
  <path d="M14 50 Q36 56 58 50 L54 38 L18 38 Z" fill="#a06020"/>
    <rect x="33" y="18" width="3" height="22" fill="#7a4810"/>
    <path d="M36 18 L58 30 L36 40 Z" fill="#e8e8cc"/>
    <circle cx="26" cy="42" r="6" fill="#e05050"/>
    <circle cx="38" cy="41" r="6" fill="#5080e0"/>
  <text x="36" y="83" fill="#cccccc" font-family="monospace" font-size="10" text-anchor="middle">Bateau chargé</text>
</g>
<text x="20" y="400" fill="#7ec8e3" font-family="monospace" font-size="11" font-weight="700">CRÉATURES</text>
<g transform="translate(20,410)">
  <rect width="72" height="72" rx="6" fill="#0a1e3a" stroke="#1a3a6a" stroke-width="1.5"/>
  <path d="M6 42 Q20 28 46 34 Q58 37 66 33 Q70 36 66 42 Q58 47 46 44 Q20 50 6 42 Z" fill="#516b82"/>
    <path d="M14 44 Q30 50 46 44 Q40 48 28 48 Q20 47 14 44 Z" fill="#aebfce"/>
    <path d="M30 34 L37 16 L43 34 Z" fill="#3f566a"/>
    <path d="M30 46 L34 56 L40 46 Z" fill="#3f566a"/>
    <path d="M66 33 L72 24 L68 38 L72 50 L66 42 Z" fill="#3f566a"/>
    <path d="M20 38 q2 4 0 8 M24 37 q2 4 0 9 M28 37 q2 4 0 9" fill="none" stroke="#33485a" stroke-width="1.2" stroke-linecap="round"/>
    <path d="M6 42 Q10 44 16 43" fill="none" stroke="#22303c" stroke-width="1.4" stroke-linecap="round"/>
    <path d="M8 41 l2 2.5 M11 41.5 l1.6 2.4 M14 42 l1.4 2.2" stroke="#fff" stroke-width="1" stroke-linecap="round"/>
    <circle cx="20" cy="39" r="2.6" fill="#16212b"/>
    <circle cx="19" cy="38" r="0.9" fill="#fff"/>
  <text x="36" y="83" fill="#cccccc" font-family="monospace" font-size="10" text-anchor="middle">Requin</text>
</g>
<g transform="translate(108,410)">
  <rect width="72" height="72" rx="6" fill="#0a1e3a" stroke="#1a3a6a" stroke-width="1.5"/>
  <path d="M30 16 Q26 8 23 4 M32 15 Q33 6 34 2 M34 16 Q39 8 42 5" fill="none" stroke="#8fd0ef" stroke-width="2.2" stroke-linecap="round"/>
    <path d="M6 44 Q16 24 40 28 Q58 31 66 40 Q58 56 38 53 Q16 56 6 44 Z" fill="#2f6aa0"/>
    <path d="M8 46 Q22 56 40 53 Q56 51 64 42 Q56 47 40 49 Q22 51 12 47 Z" fill="#cdd9e6"/>
    <path d="M16 49 v3 M22 50 v3 M28 50.5 v3 M34 50.5 v3" stroke="#9fb2c4" stroke-width="0.9" stroke-linecap="round"/>
    <path d="M36 28 L33 14 L44 27 Z" fill="#27568a"/>
    <path d="M66 40 L73 30 L68 41 L73 51 L66 44 Z" fill="#27568a"/>
    <path d="M30 46 q6 8 14 6 q-6 2 -14 -2 Z" fill="#27568a"/>
    <circle cx="18" cy="40" r="3" fill="#13283c"/>
    <circle cx="17" cy="39" r="1" fill="#fff"/>
    <path d="M10 45 q5 4 10 2" fill="none" stroke="#1b3a57" stroke-width="1.3" stroke-linecap="round"/>
  <text x="36" y="83" fill="#cccccc" font-family="monospace" font-size="10" text-anchor="middle">Baleine</text>
</g>
<g transform="translate(196,410)">
  <rect width="72" height="72" rx="6" fill="#0a1e3a" stroke="#1a3a6a" stroke-width="1.5"/>
  <!-- boucles du corps émergeant de l'eau -->
    <path d="M6 56 Q14 40 22 50 Q30 60 36 46 Q42 32 50 40" fill="none" stroke="#1f6e3a" stroke-width="11" stroke-linecap="round"/>
    <path d="M6 56 Q14 40 22 50 Q30 60 36 46 Q42 32 50 40" fill="none" stroke="#34a14f" stroke-width="7.5" stroke-linecap="round"/>
    <!-- crête dorsale -->
    <path d="M14 47 l2 -5 l3 4 M24 46 l2 -5 l3 4 M34 44 l2 -5 l3 4 M44 40 l2 -5 l3 4" fill="#f0c23a" stroke="#c8951f" stroke-width="0.6"/>
    <!-- cou + tête de dragon -->
    <path d="M48 42 Q56 34 56 24 Q56 16 62 12 L66 18 Q60 20 60 26 Q60 38 52 46 Z" fill="#1f6e3a"/>
    <path d="M50 42 Q57 35 57 25 Q57 19 61 15" fill="none" stroke="#34a14f" stroke-width="4" stroke-linecap="round"/>
    <!-- mâchoire ouverte -->
    <path d="M62 12 L70 10 L67 16 L66 18 Z" fill="#2a8443"/>
    <path d="M66 18 L70 22 L64 22 Z" fill="#2a8443"/>
    <!-- dents -->
    <path d="M66 16 l1 2 M68 15 l0.6 2.4 M65 19 l1 -2 M67.5 19 l0.6 -2.2" stroke="#fff" stroke-width="0.9" stroke-linecap="round"/>
    <!-- corne -->
    <path d="M58 14 l-3 -6 l5 3 Z" fill="#f0c23a"/>
    <!-- oeil féroce -->
    <circle cx="60" cy="20" r="2.4" fill="#ffcf2e"/>
    <circle cx="60.4" cy="20.4" r="1.1" fill="#7a1b00"/>
    <!-- écailles ventre -->
    <path d="M22 50 q4 1 7 -2 M32 50 q4 1 7 -3" fill="none" stroke="#9fe0b0" stroke-width="1" stroke-linecap="round" opacity="0.7"/>
  <text x="36" y="83" fill="#cccccc" font-family="monospace" font-size="10" text-anchor="middle">Monstre marin</text>
</g>
<text x="20" y="524" fill="#7ec8e3" font-family="monospace" font-size="11" font-weight="700">DÉ CRÉATURE &amp; EFFETS</text>
<g transform="translate(20,534)">
  <rect width="72" height="72" rx="6" fill="#0a1e3a" stroke="#1a3a6a" stroke-width="1.5"/>
  <rect x="12" y="12" width="48" height="48" rx="8" fill="#2a2a3e" stroke="#555" stroke-width="1.5"/>
    <path d="M28 44 Q36 28 44 44" fill="#5a7a9a"/>
    <path d="M36 28 L33 44 L39 44 Z" fill="#4a6a8a"/>
  <text x="36" y="83" fill="#cccccc" font-family="monospace" font-size="10" text-anchor="middle">Dé requin</text>
</g>
<g transform="translate(108,534)">
  <rect width="72" height="72" rx="6" fill="#0a1e3a" stroke="#1a3a6a" stroke-width="1.5"/>
  <rect x="12" y="12" width="48" height="48" rx="8" fill="#2a2a3e" stroke="#555" stroke-width="1.5"/>
    <path d="M18 40 Q28 28 42 32 Q52 36 56 40 Q48 50 36 48 Q22 46 18 40 Z" fill="#2a5a8a"/>
    <path d="M56 40 L62 34 L60 42 L62 48 Z" fill="#2a5a8a"/>
  <text x="36" y="83" fill="#cccccc" font-family="monospace" font-size="10" text-anchor="middle">Dé baleine</text>
</g>
<g transform="translate(196,534)">
  <rect width="72" height="72" rx="6" fill="#0a1e3a" stroke="#1a3a6a" stroke-width="1.5"/>
  <rect x="12" y="12" width="48" height="48" rx="8" fill="#2a2a3e" stroke="#555" stroke-width="1.5"/>
    <path d="M20 52 Q28 36 36 44 Q44 52 52 36 Q56 28 52 24" fill="none" stroke="#3aaa4a" stroke-width="5" stroke-linecap="round"/>
    <ellipse cx="52" cy="22" rx="6" ry="5" fill="#3aaa4a"/>
  <text x="36" y="83" fill="#cccccc" font-family="monospace" font-size="10" text-anchor="middle">Dé serpent</text>
</g>
<g transform="translate(284,534)">
  <rect width="72" height="72" rx="6" fill="#0a1e3a" stroke="#1a3a6a" stroke-width="1.5"/>
  <path d="M36 62 L28 40 L22 50 L30 28 L20 38 L28 14 L36 8 L44 14 L52 38 L42 28 L50 50 L44 40 Z" fill="#e05010"/>
    <path d="M36 62 L30 44 L26 52 L32 32 L24 42 L30 18 L36 12 L42 18 L48 42 L40 32 L46 52 L42 44 Z" fill="#f08020"/>
    <path d="M36 62 L32 48 L36 18 L40 48 Z" fill="#ffcc00"/>
    <circle cx="18" cy="20" r="3" fill="#c04010"/>
    <circle cx="54" cy="18" r="4" fill="#b03010"/>
    <circle cx="14" cy="36" r="2.5" fill="#d05020"/>
    <circle cx="56" cy="34" r="3" fill="#c04010"/>
  <text x="36" y="83" fill="#cccccc" font-family="monospace" font-size="10" text-anchor="middle">Éruption</text>
</g>
<g transform="translate(372,534)">
  <rect width="72" height="72" rx="6" fill="#0a1e3a" stroke="#1a3a6a" stroke-width="1.5"/>
  <circle cx="22" cy="36" r="8" fill="#4a8ae0" stroke="#6aaaf0" stroke-width="1.5"/>
    <circle cx="36" cy="36" r="8" fill="#4a8ae0" stroke="#6aaaf0" stroke-width="1.5"/>
    <circle cx="50" cy="36" r="8" fill="#4a8ae0" stroke="#6aaaf0" stroke-width="1.5"/>
    <text x="22" y="40" fill="#fff">1</text>
    <text x="36" y="40" fill="#fff">2</text>
    <text x="50" y="40" fill="#fff">3</text>
  <text x="36" y="83" fill="#cccccc" font-family="monospace" font-size="10" text-anchor="middle">Déplacement</text>
</g>
<g transform="translate(460,534)">
  <rect width="72" height="72" rx="6" fill="#0a1e3a" stroke="#1a3a6a" stroke-width="1.5"/>
  <rect x="16" y="24" width="40" height="24" rx="4" fill="#3a7d44" opacity="0.7"/>
    <path d="M16 36 Q36 44 56 36" fill="#0e4a7a" opacity="0.8"/>
    <path d="M10 44 Q20 38 30 44 Q40 50 50 44 Q60 38 68 44" fill="none" stroke="#4aaad8" stroke-width="2"/>
    <path d="M8 54 Q20 48 32 54 Q44 60 56 54 Q64 48 70 54" fill="none" stroke="#3a8ac8" stroke-width="2"/>
    <line x1="36" y1="20" x2="36" y2="34" stroke="#e04040" stroke-width="2.5"/>
    <polygon points="32,32 40,32 36,38" fill="#e04040"/>
  <text x="36" y="83" fill="#cccccc" font-family="monospace" font-size="10" text-anchor="middle">Engloutissement</text>
</g>
<text x="20" y="648" fill="#7ec8e3" font-family="monospace" font-size="11" font-weight="700">MARQUEURS &amp; TOKENS</text>
<g transform="translate(20,658)">
  <rect width="72" height="72" rx="6" fill="#0a1e3a" stroke="#1a3a6a" stroke-width="1.5"/>
  <circle cx="36" cy="36" r="24" fill="#1a4a2a" stroke="#3aaa4a" stroke-width="2"/>
    <path d="M22 36 L32 46 L50 26" fill="none" stroke="#3aaa4a" stroke-width="4" stroke-linecap="round" stroke-linejoin="round"/>
  <text x="36" y="83" fill="#cccccc" font-family="monospace" font-size="10" text-anchor="middle">Sauvé</text>
</g>
<g transform="translate(108,658)">
  <rect width="72" height="72" rx="6" fill="#0a1e3a" stroke="#1a3a6a" stroke-width="1.5"/>
  <circle cx="36" cy="36" r="24" fill="#4a1a1a" stroke="#e04040" stroke-width="2"/>
    <line x1="22" y1="22" x2="50" y2="50" stroke="#e04040" stroke-width="4" stroke-linecap="round"/>
    <line x1="50" y1="22" x2="22" y2="50" stroke="#e04040" stroke-width="4" stroke-linecap="round"/>
  <text x="36" y="83" fill="#cccccc" font-family="monospace" font-size="10" text-anchor="middle">Perdu</text>
</g>
<g transform="translate(196,658)">
  <rect width="72" height="72" rx="6" fill="#0a1e3a" stroke="#1a3a6a" stroke-width="1.5"/>
  <rect x="14" y="14" width="44" height="44" rx="6" fill="#2a3a4a" stroke="#4a6a8a" stroke-width="1.5"/>
    <text x="36" y="42">?</text>
  <text x="36" y="83" fill="#cccccc" font-family="monospace" font-size="10" text-anchor="middle">Tuile cachée</text>
</g>
</svg>
