<svg xmlns="http://www.w3.org/2000/svg" viewBox="0 0 72 72" width="72" height="72" role="img" aria-label="Voilier">
  <!-- mât -->
  <rect x="35" y="10" width="2.6" height="38" rx="1" fill="#6e4a1f"/>
  <!-- grande voile -->
  <path d="M37 12 Q54 22 52 42 L37 42 Z" fill="#f2ead2"/>
  <path d="M37 12 Q47 20 49 36" fill="none" stroke="#d8c79a" stroke-width="1" opacity="0.8"/>
  <!-- foc -->
  <path d="M35 14 Q20 26 22 42 L35 42 Z" fill="#e6dcc0"/>
  <!-- emblème soleil grec sur la voile -->
  <circle cx="44" cy="28" r="4.5" fill="#e0a93a"/>
  <g stroke="#e0a93a" stroke-width="1.2" stroke-linecap="round">
    <path d="M44 21 v-2 M44 35 v2 M37 28 h-2 M51 28 h2 M39 23 l-1.4 -1.4 M49 33 l1.4 1.4 M49 23 l1.4 -1.4 M39 33 l-1.4 1.4"/>
  </g>
  <!-- coque -->
  <path d="M12 48 Q36 58 60 48 L55 42 L17 42 Z" fill="#9c5e1e"/>
  <path d="M12 48 Q36 58 60 48 L58 45 Q36 53 14 45 Z" fill="#7c4814"/>
  <!-- vagues -->
  <path d="M6 50 Q18 44 30 50 Q42 56 54 50 Q62 46 68 50" fill="none" stroke="#4aaad8" stroke-width="2" stroke-linecap="round" opacity="0.7"/>
  <path d="M8 58 Q20 52 32 58 Q44 64 56 58" fill="none" stroke="#3a8ac8" stroke-width="2" stroke-linecap="round" opacity="0.6"/>
</svg>
