<svg xmlns="http://www.w3.org/2000/svg" viewBox="0 0 72 72" width="72" height="72" role="img" aria-label="Baleine">
  <path d="M30 16 Q26 8 23 4 M32 15 Q33 6 34 2 M34 16 Q39 8 42 5" fill="none" stroke="#8fd0ef" stroke-width="2.2" stroke-linecap="round"/>
  <path d="M6 44 Q16 24 40 28 Q58 31 66 40 Q58 56 38 53 Q16 56 6 44 Z" fill="#2f6aa0"/>
  <path d="M8 46 Q22 56 40 53 Q56 51 64 42 Q56 47 40 49 Q22 51 12 47 Z" fill="#cdd9e6"/>
  <path d="M16 49 v3 M22 50 v3 M28 50.5 v3 M34 50.5 v3" stroke="#9fb2c4" stroke-width="0.9" stroke-linecap="round"/>
  <path d="M36 28 L33 14 L44 27 Z" fill="#27568a"/>
  <path d="M66 40 L73 30 L68 41 L73 51 L66 44 Z" fill="#27568a"/>
  <path d="M30 46 q6 8 14 6 q-6 2 -14 -2 Z" fill="#27568a"/>
  <circle cx="18" cy="40" r="3" fill="#13283c"/>
  <circle cx="17" cy="39" r="1" fill="#fff"/>
  <path d="M10 45 q5 4 10 2" fill="none" stroke="#1b3a57" stroke-width="1.3" stroke-linecap="round"/>
</svg>
