<svg xmlns="http://www.w3.org/2000/svg" viewBox="0 0 72 72" width="72" height="72" role="img" aria-label="Requin">
  <path d="M6 42 Q20 28 46 34 Q58 37 66 33 Q70 36 66 42 Q58 47 46 44 Q20 50 6 42 Z" fill="#516b82"/>
  <path d="M14 44 Q30 50 46 44 Q40 48 28 48 Q20 47 14 44 Z" fill="#aebfce"/>
  <path d="M30 34 L37 16 L43 34 Z" fill="#3f566a"/>
  <path d="M30 46 L34 56 L40 46 Z" fill="#3f566a"/>
  <path d="M66 33 L72 24 L68 38 L72 50 L66 42 Z" fill="#3f566a"/>
  <path d="M20 38 q2 4 0 8 M24 37 q2 4 0 9 M28 37 q2 4 0 9" fill="none" stroke="#33485a" stroke-width="1.2" stroke-linecap="round"/>
  <path d="M6 42 Q10 44 16 43" fill="none" stroke="#22303c" stroke-width="1.4" stroke-linecap="round"/>
  <path d="M8 41 l2 2.5 M11 41.5 l1.6 2.4 M14 42 l1.4 2.2" stroke="#fff" stroke-width="1" stroke-linecap="round"/>
  <circle cx="20" cy="39" r="2.6" fill="#16212b"/>
  <circle cx="19" cy="38" r="0.9" fill="#fff"/>
</svg>
