<svg xmlns="http://www.w3.org/2000/svg" viewBox="0 0 72 72" width="72" height="72" role="img" aria-label="Éruption">
<path d="M36 62 L28 40 L22 50 L30 28 L20 38 L28 14 L36 8 L44 14 L52 38 L42 28 L50 50 L44 40 Z" fill="#e05010"/>
  <path d="M36 62 L30 44 L26 52 L32 32 L24 42 L30 18 L36 12 L42 18 L48 42 L40 32 L46 52 L42 44 Z" fill="#f08020"/>
  <path d="M36 62 L32 48 L36 18 L40 48 Z" fill="#ffcc00"/>
  <circle cx="18" cy="20" r="3" fill="#c04010"/>
  <circle cx="54" cy="18" r="4" fill="#b03010"/>
  <circle cx="14" cy="36" r="2.5" fill="#d05020"/>
  <circle cx="56" cy="34" r="3" fill="#c04010"/>
</svg>
