<svg xmlns="http://www.w3.org/2000/svg" viewBox="0 0 72 72" width="72" height="72" role="img" aria-label="Atlante rouge">
  <!-- jambes -->
  <path d="M30 52 l-3 16 h5 l3 -13 Z" fill="#9e2424"/>
  <path d="M42 52 l3 16 h-5 l-3 -13 Z" fill="#9e2424"/>
  <!-- tunique / toge -->
  <path d="M24 38 Q24 27 36 27 Q48 27 48 38 L46 56 Q36 60 26 56 Z" fill="#d33b3b"/>
  <path d="M30 30 L36 56 L42 30" fill="none" stroke="#f08a8a" stroke-width="2" opacity="0.7"/>
  <!-- bras -->
  <path d="M25 39 Q16 44 14 52" fill="none" stroke="#c43232" stroke-width="5" stroke-linecap="round"/>
  <path d="M47 39 Q56 44 58 52" fill="none" stroke="#c43232" stroke-width="5" stroke-linecap="round"/>
  <!-- mains -->
  <circle cx="13" cy="53" r="2.6" fill="#e8c090"/>
  <circle cx="59" cy="53" r="2.6" fill="#e8c090"/>
  <!-- cou + tête -->
  <rect x="33" y="20" width="6" height="8" rx="2" fill="#e8c090"/>
  <circle cx="36" cy="16" r="9" fill="#f0cfa0"/>
  <!-- cheveux -->
  <path d="M27 15 Q27 5 36 5 Q45 5 45 15 Q42 9 36 9 Q30 9 27 15 Z" fill="#6b4a2a"/>
</svg>
