<svg xmlns="http://www.w3.org/2000/svg" viewBox="0 0 72 72" width="72" height="72" role="img" aria-label="Nageur">
  <!-- corps immergé -->
  <path d="M18 46 Q34 40 54 46 Q60 48 62 44" fill="none" stroke="#caa074" stroke-width="6" stroke-linecap="round"/>
  <!-- tête -->
  <circle cx="22" cy="42" r="6.5" fill="#f0cfa0"/>
  <path d="M16 40 Q16 33 22 33 Q28 33 28 40 Q25 36 22 36 Q19 36 16 40 Z" fill="#6b4a2a"/>
  <!-- bras qui crawl -->
  <path d="M28 43 Q34 30 42 28" fill="none" stroke="#e8c090" stroke-width="4" stroke-linecap="round"/>
  <circle cx="43" cy="27" r="2.4" fill="#e8c090"/>
  <!-- eau -->
  <path d="M6 50 Q16 44 26 50 Q36 56 46 50 Q56 44 66 50" fill="none" stroke="#4aaad8" stroke-width="2.4" stroke-linecap="round"/>
  <path d="M6 58 Q16 52 26 58 Q36 64 46 58 Q56 52 66 58" fill="none" stroke="#3a8ac8" stroke-width="2.4" stroke-linecap="round"/>
  <!-- éclaboussure -->
  <circle cx="40" cy="46" r="1.3" fill="#bfe4f5"/>
  <circle cx="46" cy="48" r="1" fill="#bfe4f5"/>
</svg>
