<svg xmlns="http://www.w3.org/2000/svg" viewBox="0 0 72 72" width="72" height="72" role="img" aria-label="Île Corail">
  <!-- îlot -->
  <ellipse cx="36" cy="56" rx="27" ry="9" fill="#3f9a52"/>
  <ellipse cx="36" cy="54" rx="20" ry="6" fill="#e7c873"/>
  <!-- colonne grecque (refuge / Corail) -->
  <rect x="26" y="44" width="20" height="4" rx="1" fill="#f0ead6"/>
  <rect x="28" y="22" width="16" height="22" fill="#f6f1df"/>
  <path d="M28 22 v22 M32 22 v22 M36 22 v22 M40 22 v22 M44 22 v22" stroke="#d8cfac" stroke-width="0.8"/>
  <rect x="24" y="16" width="24" height="6" rx="1" fill="#f0ead6"/>
  <!-- chapiteau / fronton -->
  <polygon points="22,16 50,16 36,8" fill="#e8c45a"/>
  <!-- corail décoratif -->
  <path d="M14 52 q0 -7 4 -9 q-1 5 1 9 Z" fill="#e0728a"/>
  <path d="M58 52 q0 -6 -4 -8 q1 5 -1 8 Z" fill="#e0728a"/>
  <!-- lueur -->
  <ellipse cx="36" cy="11" rx="8" ry="3.5" fill="#fff2a8" opacity="0.7"/>
</svg>
