<svg xmlns="http://www.w3.org/2000/svg" viewBox="0 0 72 72" width="72" height="72" role="img" aria-label="Tourbillon">
  <!-- spirale type notice -->
  <path d="M36 8
           a28 28 0 1 1 -19.8 8.2
           a20 20 0 1 0 14.1 -5.9
           a12 12 0 1 1 -8.5 3.5
           a5 5 0 1 0 3.5 -1.5"
        fill="none" stroke="#2a8acc" stroke-width="4" stroke-linecap="round"/>
  <path d="M36 8
           a28 28 0 1 1 -19.8 8.2
           a20 20 0 1 0 14.1 -5.9
           a12 12 0 1 1 -8.5 3.5
           a5 5 0 1 0 3.5 -1.5"
        fill="none" stroke="#7fd0f0" stroke-width="1.6" stroke-linecap="round" opacity="0.7"/>
  <circle cx="38" cy="40" r="3" fill="#bfe8fb"/>
</svg>
