<svg xmlns="http://www.w3.org/2000/svg" viewBox="0 0 72 72" width="72" height="72" role="img" aria-label="Plage">
  <!-- monticule de sable -->
  <ellipse cx="36" cy="54" rx="29" ry="9" fill="#e7c873"/>
  <ellipse cx="36" cy="52" rx="22" ry="6" fill="#f4e3a4"/>
  <!-- tronc courbé du palmier -->
  <path d="M35 52 Q31 38 38 28" fill="none" stroke="#8a6326" stroke-width="3.5" stroke-linecap="round"/>
  <path d="M35 52 Q31 38 38 28" fill="none" stroke="#a87d3a" stroke-width="1.4" stroke-linecap="round"/>
  <!-- palmes -->
  <path d="M38 27 Q24 20 16 26 Q26 24 36 30 Z" fill="#3d9a4c"/>
  <path d="M38 27 Q52 18 60 24 Q50 24 40 30 Z" fill="#48ab57"/>
  <path d="M38 27 Q30 14 22 14 Q33 18 38 30 Z" fill="#33893f"/>
  <path d="M38 27 Q46 14 54 14 Q43 18 40 30 Z" fill="#3d9a4c"/>
  <!-- noix de coco -->
  <circle cx="37" cy="31" r="2" fill="#6e4a1f"/>
  <circle cx="41" cy="31" r="2" fill="#6e4a1f"/>
  <!-- coquillage sur le sable -->
  <path d="M50 52 q3 -4 6 0 q-3 1 -6 0 Z" fill="#f6cdb0" stroke="#d9a285" stroke-width="0.6"/>
</svg>
