<svg xmlns="http://www.w3.org/2000/svg" viewBox="0 0 800 450" preserveAspectRatio="xMidYMid slice">
  <defs>
    <linearGradient id="bg" x1="0" y1="0" x2="1" y2="1">
      <stop offset="0" stop-color="#0c4a6e"/>
      <stop offset="1" stop-color="#082f49"/>
    </linearGradient>
    <radialGradient id="glow" cx="0.5" cy="0.7" r="0.7">
      <stop offset="0" stop-color="#38bdf8" stop-opacity="0.35"/>
      <stop offset="1" stop-color="#38bdf8" stop-opacity="0"/>
    </radialGradient>
  </defs>
  <rect width="800" height="450" fill="url(#bg)"/>
  <rect width="800" height="450" fill="url(#glow)"/>
  <g>
    <rect x="150" y="70" width="90" height="32" rx="6" fill="#ef4444"/>
    <rect x="250" y="70" width="90" height="32" rx="6" fill="#f97316"/>
    <rect x="350" y="70" width="90" height="32" rx="6" fill="#eab308"/>
    <rect x="450" y="70" width="90" height="32" rx="6" fill="#22c55e"/>
    <rect x="550" y="70" width="90" height="32" rx="6" fill="#3b82f6"/>
    <rect x="200" y="112" width="90" height="32" rx="6" fill="#f97316"/>
    <rect x="300" y="112" width="90" height="32" rx="6" fill="#eab308"/>
    <rect x="400" y="112" width="90" height="32" rx="6" fill="#22c55e"/>
    <rect x="500" y="112" width="90" height="32" rx="6" fill="#3b82f6"/>
  </g>
  <circle cx="440" cy="230" r="14" fill="#fff"/>
  <path d="M440 230 L500 175" stroke="#ffffff" stroke-width="3" stroke-dasharray="6 8" opacity="0.5"/>
  <rect x="350" y="300" width="120" height="20" rx="10" fill="#38bdf8"/>
  <g transform="translate(400 390)" text-anchor="middle" font-family="system-ui, -apple-system, Segoe UI, Roboto, sans-serif">
    <text font-size="42" font-weight="800" fill="#ffffff" letter-spacing="3">CASSE-BRIQUE</text>
  </g>
</svg>
