<svg xmlns="http://www.w3.org/2000/svg" viewBox="0 0 800 450" preserveAspectRatio="xMidYMid slice">
  <defs>
    <linearGradient id="bg" x1="0" y1="0" x2="1" y2="1">
      <stop offset="0" stop-color="#1e1b4b"/>
      <stop offset="1" stop-color="#020617"/>
    </linearGradient>
    <radialGradient id="glow" cx="0.3" cy="0.4" r="0.8">
      <stop offset="0" stop-color="#fbbf24" stop-opacity="0.35"/>
      <stop offset="1" stop-color="#fbbf24" stop-opacity="0"/>
    </radialGradient>
  </defs>
  <rect width="800" height="450" fill="url(#bg)"/>
  <rect width="800" height="450" fill="url(#glow)"/>
  <g opacity="0.15" stroke="#2563eb" stroke-width="6" fill="none">
    <rect x="60" y="60" width="120" height="80" rx="12"/>
    <rect x="620" y="310" width="120" height="80" rx="12"/>
    <rect x="640" y="70" width="80" height="60" rx="10"/>
  </g>
  <g>
    <circle cx="220" cy="225" r="70" fill="#fde047"/>
    <path d="M220 225 L290 190 A70 70 0 0 0 290 260 Z" fill="#1e1b4b"/>
    <circle cx="210" cy="185" r="9" fill="#1e1b4b"/>
  </g>
  <g fill="#fde047">
    <circle cx="350" cy="225" r="9"/>
    <circle cx="400" cy="225" r="9"/>
    <circle cx="450" cy="225" r="9"/>
  </g>
  <g transform="translate(560 180)">
    <path d="M0 50 a50 50 0 0 1 100 0 v50 l-16 -16 -17 16 -17 -16 -17 16 -16 -16 Z" fill="#ef4444"/>
    <circle cx="32" cy="46" r="13" fill="#fff"/><circle cx="68" cy="46" r="13" fill="#fff"/>
    <circle cx="36" cy="48" r="6" fill="#1e3a8a"/><circle cx="72" cy="48" r="6" fill="#1e3a8a"/>
  </g>
  <g transform="translate(400 390)" text-anchor="middle" font-family="system-ui, -apple-system, Segoe UI, Roboto, sans-serif">
    <text font-size="44" font-weight="800" fill="#ffffff" letter-spacing="4">PAC-MAN</text>
  </g>
</svg>
